<svg width="40" height="40" viewBox="0 0 40 40" fill="none" xmlns="http://www.w3.org/2000/svg">

<path id="Ellipse 7" d="M5.23707 15.565C8.07954 15.565 10.3838 13.2207 10.3838 10.3289C10.3838 7.43711 8.07954 5.09283 5.23707 5.09283C2.39461 5.09283 0.090332 7.43711 0.090332 10.3289C0.090332 13.2207 2.39461 15.565 5.23707 15.565Z" fill="white"/>
<path id="Ellipse 8" d="M34.7631 17.3103C37.6055 17.3103 39.9098 14.9661 39.9098 12.0743C39.9098 9.18247 37.6055 6.8382 34.7631 6.8382C31.9206 6.8382 29.6163 9.18247 29.6163 12.0743C29.6163 14.9661 31.9206 17.3103 34.7631 17.3103Z" fill="white"/>
<path id="Path 17" d="M34.8533 6.65436C33.8647 6.65439 32.8971 6.94407 32.066 7.48877C31.235 8.03347 30.5757 8.81013 30.1671 9.72591C31.0481 8.92741 32.1721 8.4612 33.3508 8.40539C34.5295 8.34957 35.6912 8.70754 36.6414 9.41933C37.5915 10.1311 38.2724 11.1535 38.5698 12.3151C38.8673 13.4768 38.7634 14.7072 38.2754 15.8001C39.0547 15.0944 39.6048 14.1644 39.8527 13.1334C40.1005 12.1024 40.0345 11.0191 39.6633 10.0271C39.2921 9.03512 38.6334 8.18136 37.7743 7.57901C36.9153 6.97667 35.8966 6.6542 34.8533 6.65436Z" fill="#EC1560"/>
<path id="Path 18" d="M5.14669 4.909C6.13527 4.90903 7.10292 5.19871 7.93396 5.74341C8.765 6.2881 9.42427 7.06477 9.83293 7.98055C8.95188 7.18205 7.82786 6.71584 6.64919 6.66003C5.47051 6.60421 4.30878 6.96218 3.35863 7.67397C2.40848 8.38575 1.72763 9.40811 1.43014 10.5698C1.13265 11.7314 1.2366 12.9618 1.72456 14.0548C0.945257 13.3491 0.395203 12.419 0.147337 11.388C-0.100529 10.357 -0.0344974 9.27369 0.336673 8.28172C0.707844 7.28975 1.36662 6.436 2.22565 5.83365C3.08468 5.23131 4.10339 4.90884 5.14669 4.909Z" fill="#EC1560"/>
<path id="Ellipse 9" d="M19.1422 40C27.8192 40 34.8533 32.8438 34.8533 24.0162C34.8533 15.1886 27.8192 8.03241 19.1422 8.03241C10.4652 8.03241 3.43115 15.1886 3.43115 24.0162C3.43115 32.8438 10.4652 40 19.1422 40Z" fill="#EC1560"/>
<path id="Path 19" d="M22.9603 24.5628C23.774 23.4515 24.9876 22.7136 26.3351 22.5109C27.6826 22.3083 29.0541 22.6573 30.1491 23.4816C30.7575 22.6505 31.1099 21.6544 31.1615 20.6195C31.2132 19.5845 30.9618 18.5573 30.4393 17.6678C29.9167 16.7782 29.1465 16.0665 28.2261 15.6226C27.3056 15.1787 26.2764 15.0226 25.2688 15.1742C24.2611 15.3257 23.3204 15.778 22.5655 16.4739C21.8107 17.1697 21.2758 18.0777 21.0286 19.083C20.7814 20.0883 20.8329 21.1457 21.1767 22.1211C21.5205 23.0966 22.141 23.9464 22.9598 24.5628H22.9603Z" fill="white"/>
<path id="Path 20" d="M10.9512 25.5733C11.7649 24.462 12.9785 23.7241 14.326 23.5214C15.6735 23.3188 17.0451 23.6678 18.1401 24.4921C18.7485 23.661 19.1009 22.6649 19.1525 21.63C19.2042 20.595 18.9528 19.5678 18.4303 18.6782C17.9077 17.7887 17.1374 17.077 16.217 16.6331C15.2966 16.1892 14.2674 16.0331 13.2598 16.1847C12.2521 16.3362 11.3113 16.7885 10.5565 17.4844C9.80169 18.1802 9.2668 19.0882 9.01957 20.0935C8.77233 21.0988 8.82387 22.1562 9.16765 23.1316C9.51144 24.1071 10.132 24.9569 10.9508 25.5733H10.9512Z" fill="white"/>
<path id="Ellipse 10" d="M14.3567 22.2708C15.4039 22.2708 16.2528 21.4071 16.2528 20.3417C16.2528 19.2763 15.4039 18.4127 14.3567 18.4127C13.3095 18.4127 12.4605 19.2763 12.4605 20.3417C12.4605 21.4071 13.3095 22.2708 14.3567 22.2708Z" fill="#3F3D56"/>
<path id="Ellipse 11" d="M26.6366 20.801C27.6839 20.801 28.5328 19.9374 28.5328 18.872C28.5328 17.8065 27.6839 16.9429 26.6366 16.9429C25.5894 16.9429 24.7405 17.8065 24.7405 18.872C24.7405 19.9374 25.5894 20.801 26.6366 20.801Z" fill="#3F3D56"/>
<path id="Ellipse 12" d="M20.316 25.5778C20.8646 25.5778 21.3093 25.1254 21.3093 24.5674C21.3093 24.0093 20.8646 23.5569 20.316 23.5569C19.7675 23.5569 19.3228 24.0093 19.3228 24.5674C19.3228 25.1254 19.7675 25.5778 20.316 25.5778Z" fill="#3F3D56"/>
<path id="Path 21" d="M12.719 9.56514C12.0643 8.49294 11.6247 7.23343 11.7609 5.97879C11.897 4.72416 12.7049 3.50002 13.8941 3.14029C15.0834 2.78056 16.5566 3.52565 16.7807 4.76706C17.9719 2.67179 19.8561 1.07529 22.0971 0.26247C23.1365 -0.110118 24.5178 -0.19463 25.1189 0.745108C25.4163 1.2102 25.4482 1.84257 25.8467 2.2215C26.4713 2.81556 27.473 2.39714 28.3266 2.44793C29.527 2.51931 30.4936 3.65903 30.6445 4.87306C30.7954 6.0871 30.2674 7.30628 29.4876 8.23738C28.7078 9.16848 27.6931 9.85919 26.6926 10.5376" fill="#EC1560"/>
</svg>
